<svg width="120" height="120" viewBox="0 0 120 120" fill="none" xmlns="http://www.w3.org/2000/svg">
<path d="M93.75 120C100.712 120 107.389 117.234 112.312 112.312C117.234 107.389 120 100.712 120 93.75C120 86.7881 117.234 80.1113 112.312 75.1884C107.389 70.2656 100.712 67.5 93.75 67.5C86.7881 67.5 80.1113 70.2656 75.1884 75.1884C70.2656 80.1113 67.5 86.7881 67.5 93.75C67.5 100.712 70.2656 107.389 75.1884 112.312C80.1113 117.234 86.7881 120 93.75 120ZM96.405 76.095L107.655 87.345C108.359 88.0491 108.755 89.0042 108.755 90C108.755 90.9958 108.359 91.9509 107.655 92.655C106.951 93.3591 105.996 93.7547 105 93.7547C104.004 93.7547 103.049 93.3591 102.345 92.655L97.5 87.8025V108.75C97.5 109.745 97.1049 110.698 96.4017 111.402C95.6984 112.105 94.7446 112.5 93.75 112.5C92.7554 112.5 91.8016 112.105 91.0983 111.402C90.3951 110.698 90 109.745 90 108.75V87.8025L85.155 92.655C84.4509 93.3591 83.4958 93.7547 82.5 93.7547C81.5042 93.7547 80.5491 93.3591 79.845 92.655C79.1408 91.9509 78.7453 90.9958 78.7453 90C78.7453 89.0042 79.1408 88.0491 79.845 87.345L91.095 76.095C91.4433 75.7458 91.8572 75.4687 92.3128 75.2797C92.7683 75.0906 93.2567 74.9933 93.75 74.9933C94.2433 74.9933 94.7317 75.0906 95.1872 75.2797C95.6428 75.4687 96.0567 75.7458 96.405 76.095Z" fill="#545454"/>
<path d="M90.72 46.6725C93.1114 45.6005 95.3838 44.2808 97.5 42.735V52.5C97.5 54.6675 95.9025 57.405 91.8525 60.0525C96.3159 59.8006 100.785 60.4379 105 61.9275V30C105 22.4475 98.4375 16.8375 90.72 13.3275C82.665 9.6675 71.7975 7.5 60 7.5C48.2025 7.5 37.335 9.6675 29.28 13.3275C21.5625 16.8375 15 22.4475 15 30V97.5C15 105.052 21.5625 110.662 29.28 114.173C37.335 117.825 48.2025 120 60 120C64.02 120 67.935 119.745 71.6625 119.272C69.3206 117.246 67.2689 114.906 65.565 112.32C63.745 112.44 61.89 112.5 60 112.5C49.02 112.5 39.255 110.475 32.385 107.347C25.17 104.062 22.5 100.298 22.5 97.5V87.735C24.5325 89.25 26.85 90.57 29.28 91.6725C37.335 95.325 48.2025 97.5 60 97.5H60.2025C59.93 95.0074 59.93 92.4926 60.2025 90H60C49.02 90 39.255 87.975 32.385 84.8475C25.17 81.5625 22.5 77.7975 22.5 75V65.235C24.5325 66.75 26.85 68.07 29.28 69.1725C37.335 72.825 48.2025 75 60 75C61.965 75 63.9 74.94 65.805 74.82C68.0378 71.5248 70.8359 68.6505 74.07 66.33C69.735 67.08 64.995 67.5 60 67.5C49.02 67.5 39.255 65.475 32.385 62.3475C25.17 59.0625 22.5 55.2975 22.5 52.5V42.735C24.5325 44.25 26.85 45.57 29.28 46.6725C37.335 50.3325 48.2025 52.5 60 52.5C71.7975 52.5 82.665 50.3325 90.72 46.6725ZM22.5 30C22.5 27.195 25.17 23.4375 32.385 20.1525C39.255 17.0325 49.02 15 60 15C70.98 15 80.745 17.025 87.615 20.1525C94.83 23.4375 97.5 27.2025 97.5 30C97.5 32.805 94.83 36.5625 87.615 39.8475C80.745 42.9675 70.98 45 60 45C49.02 45 39.255 42.975 32.385 39.8475C25.17 36.5625 22.5 32.7975 22.5 30Z" fill="#545454"/>
</svg>
