<svg width="120" height="120" viewBox="0 0 120 120" fill="none" xmlns="http://www.w3.org/2000/svg">
<g clip-path="url(#clip0_394_7)">
<path d="M60 7.5C46.0761 7.5 32.7226 13.0312 22.8769 22.8769C13.0312 32.7226 7.5 46.0761 7.5 60C7.5 73.9239 13.0312 87.2774 22.8769 97.1231C32.7226 106.969 46.0761 112.5 60 112.5C73.9239 112.5 87.2774 106.969 97.1231 97.1231C106.969 87.2774 112.5 73.9239 112.5 60C112.5 46.0761 106.969 32.7226 97.1231 22.8769C87.2774 13.0312 73.9239 7.5 60 7.5ZM60 0C75.913 0 91.1742 6.32141 102.426 17.5736C113.679 28.8258 120 44.087 120 60C120 75.913 113.679 91.1742 102.426 102.426C91.1742 113.679 75.913 120 60 120C44.087 120 28.8258 113.679 17.5736 102.426C6.32141 91.1742 0 75.913 0 60C0 44.087 6.32141 28.8258 17.5736 17.5736C28.8258 6.32141 44.087 0 60 0Z" fill="#545454"/>
<path d="M32.1375 48.2475C32.9988 48.7448 34.0223 48.8795 34.983 48.6221C35.9436 48.3647 36.7627 47.7363 37.26 46.875C39.5633 42.8825 42.8779 39.5672 46.8699 37.2631C50.862 34.959 55.3907 33.7473 60 33.75C69.7125 33.75 78.195 39.0225 82.74 46.875C83.2408 47.7293 84.0592 48.3508 85.0165 48.6039C85.9739 48.857 86.9925 48.7212 87.8501 48.226C88.7077 47.7309 89.3346 46.9167 89.594 45.961C89.8535 45.0053 89.7244 43.9858 89.235 43.125C86.2734 37.9924 82.0121 33.7304 76.8799 30.768C71.7477 27.8056 65.9258 26.2473 60 26.25C54.0745 26.2488 48.2531 27.8077 43.1212 30.77C37.9893 33.7322 33.7277 37.9934 30.765 43.125C30.2677 43.9863 30.133 45.0098 30.3903 45.9705C30.6477 46.9311 31.2762 47.7502 32.1375 48.2475ZM52.5 71.25C52.5 65.04 49.14 60 45 60C40.86 60 37.5 65.04 37.5 71.25C37.5 77.46 40.86 82.5 45 82.5C49.14 82.5 52.5 77.46 52.5 71.25ZM82.5 71.25C82.5 65.04 79.14 60 75 60C70.86 60 67.5 65.04 67.5 71.25C67.5 77.46 70.86 82.5 75 82.5C79.14 82.5 82.5 77.46 82.5 71.25Z" fill="#545454"/>
</g>
<defs>
<clipPath id="clip0_394_7">
<rect width="120" height="120" fill="white"/>
</clipPath>
</defs>
</svg>
