<svg width="80" height="80" viewBox="0 0 80 80" fill="none" xmlns="http://www.w3.org/2000/svg">
<g clip-path="url(#clip0_199_52)">
<path d="M78.49 36.435L43.56 1.51C43.0817 1.03151 42.5139 0.651937 41.8889 0.392966C41.2639 0.133995 40.594 0.000701904 39.9175 0.000701904C39.241 0.000701904 38.5711 0.133995 37.9461 0.392966C37.3211 0.651937 36.7532 1.03151 36.275 1.51L29.025 8.76L38.225 17.96C39.31 17.5895 40.4773 17.5316 41.5937 17.7927C42.7101 18.0539 43.7305 18.6237 44.5386 19.437C45.3467 20.2503 45.9099 21.2744 46.1639 22.3924C46.4179 23.5105 46.3524 24.6774 45.975 25.76L54.84 34.63C56.1515 34.1682 57.5813 34.1668 58.8937 34.626C60.2062 35.0853 61.3231 35.9777 62.0607 37.1565C62.7982 38.3353 63.1123 39.7301 62.9514 41.1112C62.7904 42.4923 62.1638 43.7775 61.175 44.755C60.1739 45.7622 58.8542 46.3906 57.4412 46.5329C56.0283 46.6751 54.6098 46.3224 53.428 45.535C52.2463 44.7475 51.3746 43.5742 50.9618 42.2154C50.5491 40.8566 50.6209 39.3967 51.165 38.085L42.9 29.815V51.58C44.1563 52.2019 45.1615 53.2355 45.7481 54.5087C46.3346 55.7818 46.4671 57.2175 46.1235 58.5765C45.7799 59.9355 44.9808 61.1357 43.8596 61.977C42.7384 62.8183 41.3626 63.2499 39.9618 63.1999C38.5609 63.1498 37.2195 62.6212 36.1611 61.7021C35.1027 60.7829 34.3914 59.5288 34.1455 58.1487C33.8997 56.7687 34.1343 55.3461 34.8102 54.118C35.4861 52.89 36.5625 51.9307 37.86 51.4V29.435C37.1114 29.1283 36.431 28.6764 35.8579 28.1055C35.2848 27.5345 34.8303 26.8558 34.5208 26.1084C34.2112 25.361 34.0527 24.5597 34.0543 23.7508C34.0558 22.9418 34.2175 22.1412 34.53 21.395L25.465 12.325L1.51498 36.275C1.03649 36.7533 0.656911 37.3211 0.39794 37.9461C0.138969 38.5711 0.00567627 39.241 0.00567627 39.9175C0.00567627 40.594 0.138969 41.2639 0.39794 41.8889C0.656911 42.5139 1.03649 43.0817 1.51498 43.56L36.445 78.49C36.9232 78.9685 37.4911 79.3481 38.1161 79.607C38.7411 79.866 39.411 79.9993 40.0875 79.9993C40.764 79.9993 41.4339 79.866 42.0589 79.607C42.6839 79.3481 43.2517 78.9685 43.73 78.49L78.495 43.725C79.4601 42.7585 80.0022 41.4484 80.0022 40.0825C80.0022 38.7166 79.4601 37.4065 78.495 36.44" fill="#545454"/>
</g>
<defs>
<clipPath id="clip0_199_52">
<rect width="80" height="80" fill="white"/>
</clipPath>
</defs>
</svg>
