<svg width="80" height="80" viewBox="0 0 80 80" fill="none" xmlns="http://www.w3.org/2000/svg">
<g clip-path="url(#clip0_266_4)">
<path d="M45.0899 0.327412C23.1774 -2.47259 3.13741 12.9949 0.327412 34.9099C-2.47259 56.8224 12.9949 76.8624 34.9099 79.6724C56.8224 82.4724 76.8624 67.0049 79.6599 45.0899C82.4724 23.1774 67.0074 3.13741 45.0899 0.327412ZM53.3199 25.2874C52.5774 25.2874 51.8724 25.5874 51.3524 26.1199L36.5099 40.9499L35.4824 39.9324L33.3449 37.7849C47.9674 23.2024 50.6124 23.0574 53.3174 25.2849L53.3199 25.2874ZM37.1224 41.4824L51.9124 26.6799C52.1073 26.4768 52.3415 26.3154 52.6006 26.2055C52.8598 26.0957 53.1386 26.0396 53.4201 26.0408C53.7016 26.0419 53.9799 26.1003 54.2382 26.2123C54.4964 26.3243 54.7292 26.4877 54.9224 26.6924C55.1143 26.8972 55.2623 27.1391 55.3575 27.4031C55.4527 27.6672 55.4929 27.9478 55.4758 28.228C55.4588 28.5081 55.3847 28.7818 55.2581 29.0323C55.1316 29.2829 54.9553 29.5049 54.7399 29.6849L39.0774 43.4349L37.1224 41.4824ZM38.2174 43.8024L34.5449 44.5949C34.5005 44.601 34.4554 44.5929 34.4159 44.5718C34.3764 44.5507 34.3445 44.5177 34.3249 44.4774C34.3049 44.4389 34.2979 44.3948 34.3052 44.352C34.3124 44.3091 34.3333 44.2698 34.3649 44.2399L36.5124 42.0924L38.2174 43.8024ZM28.8674 42.2674L32.7874 38.3599L35.7174 41.2899L29.1149 42.7074C29.0593 42.7221 29.0004 42.7172 28.9481 42.6935C28.8957 42.6698 28.8531 42.6288 28.8274 42.5774C28.7987 42.5286 28.7871 42.4717 28.7943 42.4156C28.8016 42.3594 28.8273 42.3073 28.8674 42.2674ZM16.7199 62.4599C16.5774 62.4474 16.4699 62.3174 16.4824 62.1874C16.493 62.1282 16.5208 62.0734 16.5624 62.0299H16.5749L19.7249 58.8799L23.8024 62.9574L16.7199 62.4599ZM24.8024 58.2674C24.6526 58.3487 24.5335 58.4767 24.4631 58.632C24.3927 58.7872 24.3749 58.9611 24.4124 59.1274L25.0899 62.0074C25.1974 62.4249 24.6874 62.7074 24.3874 62.3974H24.3749L20.2874 58.3074L32.8274 45.7799L38.8949 44.4674L41.7974 47.3849C37.6174 51.0549 31.8999 54.7149 24.8049 58.2674H24.8024ZM42.3974 46.8499L39.5974 44.0499L55.2599 30.2999C55.4024 30.1699 55.5324 30.0274 55.6499 29.8824C55.1699 34.3624 48.8924 40.6899 42.3974 46.8499ZM54.5974 25.3124H54.5849C49.1274 19.8299 56.8374 11.4049 62.7749 16.3524L57.4124 21.7324C57.3749 21.7698 57.3452 21.8142 57.3249 21.8631C57.3046 21.912 57.2941 21.9645 57.2941 22.0174C57.2941 22.0704 57.3046 22.1228 57.3249 22.1717C57.3452 22.2206 57.3749 22.265 57.4124 22.3024L61.5649 26.4599C60.4298 27.023 59.1465 27.2152 57.8962 27.0093C56.6459 26.8034 55.492 26.2098 54.5974 25.3124ZM63.1774 25.3124C62.9054 25.5867 62.6045 25.8306 62.2799 26.0399L58.2574 22.0174L63.3599 16.8999C64.4224 18.054 64.9969 19.5746 64.9629 21.1429C64.9289 22.7112 64.289 24.2055 63.1774 25.3124ZM62.8499 20.1699C62.7696 20.2272 62.7092 20.308 62.6769 20.4012C62.6447 20.4944 62.6422 20.5953 62.6699 20.6899C62.7911 20.9288 62.8395 21.198 62.8093 21.4641C62.7791 21.7303 62.6715 21.9818 62.4999 22.1874C62.4603 22.2355 62.4308 22.2911 62.4132 22.3508C62.3957 22.4106 62.3903 22.4733 62.3976 22.5352C62.4048 22.597 62.4245 22.6568 62.4554 22.7109C62.4863 22.765 62.5278 22.8123 62.5774 22.8499C62.6571 22.9071 62.7519 22.9392 62.8499 22.9424C62.9924 22.9424 63.1274 22.8899 63.2024 22.7849C63.4894 22.4397 63.6704 22.0188 63.7237 21.573C63.7769 21.1272 63.7001 20.6755 63.5024 20.2724C63.4667 20.2223 63.4213 20.1799 63.369 20.1476C63.3167 20.1152 63.2584 20.0937 63.1977 20.0841C63.1369 20.0746 63.0749 20.0773 63.0152 20.092C62.9554 20.1067 62.8993 20.1332 62.8499 20.1699Z" fill="#545454"/>
</g>
<defs>
<clipPath id="clip0_266_4">
<rect width="80" height="80" fill="white"/>
</clipPath>
</defs>
</svg>
