<svg width="80" height="80" viewBox="0 0 80 80" fill="none" xmlns="http://www.w3.org/2000/svg">
<path d="M29.5075 61.8625C29.5075 61.8625 26.4475 63.645 31.68 64.2425C38.02 64.9725 41.2625 64.87 48.2425 63.54C48.2425 63.54 50.075 64.7 52.6425 65.7025C36.98 72.41 17.2 65.3 29.505 61.8625H29.5075ZM27.59 53.1125C27.59 53.1125 24.1525 55.65 29.3875 56.1825C36.175 56.885 41.51 56.9525 50.7675 55.17C50.7675 55.17 52.045 56.46 54.065 57.1725C35.1325 62.705 14.035 57.6025 27.59 53.1125ZM43.7225 38.2575C47.575 42.6975 42.705 46.695 42.705 46.695C42.705 46.695 52.4975 41.6275 48.005 35.3025C43.8025 29.39 40.5725 26.4625 58.0175 16.3425C58.0175 16.3425 30.635 23.18 43.72 38.26L43.7225 38.2575ZM64.4275 68.3475C64.4275 68.3475 66.695 70.2075 61.94 71.655C52.9025 74.3875 24.3225 75.2075 16.38 71.7575C13.53 70.52 18.88 68.79 20.56 68.4375C22.3175 68.0475 23.32 68.1275 23.32 68.1275C20.1425 65.8875 2.79997 72.515 14.5075 74.415C46.4475 79.5975 72.72 72.085 64.4275 68.3475ZM30.9775 44.0375C30.9775 44.0375 16.435 47.4875 25.82 48.7375C29.7925 49.27 37.6975 49.155 45.0675 48.53C51.08 48.02 57.125 46.94 57.125 46.94C57.125 46.94 55.0025 47.85 53.465 48.9075C38.6975 52.7875 10.1725 50.9775 18.3875 47.0075C25.3275 43.66 30.9775 44.0375 30.9775 44.0375ZM57.0575 58.62C72.0575 50.8075 65.1175 43.32 60.2875 44.3375C59.1 44.57 58.5675 44.795 58.5675 44.795C58.5675 44.795 58.9975 44.1025 59.845 43.805C69.4275 40.4325 76.7975 53.7375 56.7575 59.0125C56.7575 59 56.995 58.8025 57.0575 58.62ZM48.0075 0C48.0075 0 56.3175 8.3075 40.1175 21.0925C27.1375 31.3525 37.16 37.2 40.1175 43.88C32.54 37.0425 26.98 31.03 30.705 25.43C36.185 17.1875 51.355 13.2025 48.0075 0ZM32.4475 79.7525C46.85 80.6625 68.97 79.2325 69.5075 72.4225C69.5075 72.4225 68.49 75 57.59 77.055C45.3 79.3725 30.13 79.0975 21.1325 77.615C21.1325 77.615 22.9825 79.1375 32.445 79.7525H32.4475Z" fill="#545454"/>
</svg>
