<svg width="80" height="80" viewBox="0 0 80 80" fill="none" xmlns="http://www.w3.org/2000/svg">
<g clip-path="url(#clip0_199_22)">
<path d="M73.1667 30C72.3413 21.7771 68.4908 14.1541 62.3623 8.6099C56.2337 3.06573 48.2642 -0.00418091 40 -0.00418091C31.7359 -0.00418091 23.7663 3.06573 17.6378 8.6099C11.5093 14.1541 7.65876 21.7771 6.83337 30H7.66004L21.5334 50.0533L24.2767 48.1533L11.7134 30H19.5867C19.5867 28.8949 20.0257 27.8351 20.8071 27.0537C21.5885 26.2723 22.6483 25.8333 23.7534 25.8333C24.8584 25.8333 25.9183 26.2723 26.6997 27.0537C27.4811 27.8351 27.92 28.8949 27.92 30H29.3267L33.4834 43.3333L36.6667 42.34L32.8167 30H35.8367C35.8367 28.8949 36.2757 27.8351 37.0571 27.0537C37.8385 26.2723 38.8983 25.8333 40.0034 25.8333C41.1084 25.8333 42.1683 26.2723 42.9497 27.0537C43.7311 27.8351 44.17 28.8949 44.17 30H47.1834L43.3334 42.34L46.5167 43.3333L50.6734 30H52.0867C52.0867 29.4528 52.1945 28.911 52.4039 28.4055C52.6133 27.9 52.9202 27.4406 53.3071 27.0537C53.694 26.6668 54.1533 26.3599 54.6589 26.1505C55.1644 25.9411 55.7062 25.8333 56.2534 25.8333C56.8005 25.8333 57.3424 25.9411 57.8479 26.1505C58.3534 26.3599 58.8127 26.6668 59.1997 27.0537C59.5866 27.4406 59.8935 27.9 60.1029 28.4055C60.3123 28.911 60.42 29.4528 60.42 30H68.23L55.6667 48.1567L58.4067 50.0533L72.2834 30H73.1667ZM56.2534 19.1667C54.7102 19.172 53.1862 19.509 51.7846 20.1549C50.383 20.8007 49.1367 21.7403 48.13 22.91C47.1268 21.7357 45.8809 20.7929 44.4783 20.1464C43.0756 19.4999 41.5495 19.1652 40.005 19.1652C38.4606 19.1652 36.9345 19.4999 35.5318 20.1464C34.1292 20.7929 32.8833 21.7357 31.88 22.91C30.8526 21.7076 29.5712 20.7483 28.1282 20.101C26.6852 19.4537 25.1166 19.1347 23.5354 19.1669C21.9542 19.1991 20.3998 19.5817 18.9844 20.2872C17.5689 20.9927 16.3277 22.0035 15.35 23.2467C17.3445 18.3469 20.754 14.1527 25.1432 11.1996C29.5324 8.24656 34.7021 6.66857 39.9922 6.66714C45.2824 6.66571 50.4529 8.24091 54.8437 11.1916C59.2345 14.1423 62.6462 18.3347 64.6434 23.2333C63.6389 21.9702 62.3635 20.9489 60.9112 20.245C59.459 19.5411 57.8672 19.1726 56.2534 19.1667Z" fill="#545454"/>
<path d="M36.6667 51.35L31.9534 46.6667L19.8934 58.65L15.1801 63.3333L31.9534 80L36.6667 75.3167L24.6067 63.3333L36.6667 51.35ZM43.4034 75.3167L48.1167 80L60.1767 68.0167L64.89 63.3333L48.1167 46.6667L43.4034 51.35L55.4634 63.3333L43.4034 75.3167Z" fill="#545454"/>
</g>
<defs>
<clipPath id="clip0_199_22">
<rect width="80" height="80" fill="white"/>
</clipPath>
</defs>
</svg>
