<svg width="75" height="80" viewBox="0 0 75 80" fill="none" xmlns="http://www.w3.org/2000/svg">
<g clip-path="url(#clip0_339_8)">
<path d="M73.7483 52.2547L52.5093 40L73.7483 27.7453C74.9452 27.0547 75.3546 25.5266 74.6639 24.3297L69.6608 15.6687C68.9702 14.4734 67.4405 14.0625 66.2436 14.7531L45.0046 27.0078V2.5C45.0046 1.11875 43.8843 0 42.503 0H32.4968C31.1155 0 29.9952 1.11875 29.9952 2.5V27.0094L8.75614 14.7547C7.55926 14.0641 6.02957 14.475 5.33895 15.6703L0.335825 24.3297C-0.3548 25.525 0.0545747 27.0547 1.25145 27.7453L22.4905 40L1.25145 52.2547C0.0545747 52.9453 -0.3548 54.475 0.335825 55.6703L5.33895 64.3313C6.02957 65.5266 7.55926 65.9359 8.75614 65.2469L29.9952 52.9922V77.5C29.9952 78.8813 31.1155 80 32.4968 80H42.503C43.8843 80 45.0046 78.8813 45.0046 77.5V52.9906L66.2436 65.2453C67.4405 65.9359 68.9702 65.5266 69.6608 64.3297L74.6639 55.6687C75.3546 54.4734 74.9452 52.9453 73.7483 52.2547Z" fill="#545454"/>
</g>
<defs>
<clipPath id="clip0_339_8">
<rect width="75" height="80" fill="white"/>
</clipPath>
</defs>
</svg>
