<svg width="68" height="80" viewBox="0 0 68 80" fill="none" xmlns="http://www.w3.org/2000/svg">
<g clip-path="url(#clip0_199_14)">
<path d="M33.755 0.013427C16.6454 0.198427 1.75567 11.7669 3.50848 13.9517C3.98036 15.8395 10.2521 20.6744 10.745 24.0723C11.2274 27.4075 11.5211 31.1516 14.6569 31.1516C17.9082 31.1516 17.8975 26.7886 18.5058 24.0723C19.4918 19.7305 26.2563 17.528 28.0602 20.6533C29.9271 23.9045 34.0277 23.4745 35.2024 20.9155C38.949 12.0717 53.13 28.5784 45.8474 29.9245C28.1146 30.9042 18.6766 32.3323 11.9183 36.3001C-2.17605 44.5747 -0.587922 57.6781 1.03364 58.3467C1.90802 82.9203 38.7505 87.1747 49.4343 68.0415V78.0631H65.7636V43.4281C66.0883 43.1587 66.6082 42.9906 66.7693 42.1437C70.5832 12.0728 56.8808 -0.470479 33.7552 0.0135832M49.1407 46.9566C49.1407 57.944 43.1604 64.02 36.4222 65.3772C27.2041 67.2341 18.5166 64.4966 18.5166 56.6576C18.3946 45.3098 35.0638 44.0961 47.8927 44.3451C49.5421 44.515 49.1066 45.9376 49.1407 46.9566Z" fill="#545454"/>
</g>
<defs>
<clipPath id="clip0_199_14">
<rect width="67.5" height="80" fill="white"/>
</clipPath>
</defs>
</svg>
