<svg width="80" height="80" viewBox="0 0 80 80" fill="none" xmlns="http://www.w3.org/2000/svg">
<path d="M19.2857 8.57144C16.4441 8.57144 13.7189 9.70026 11.7096 11.7096C9.70023 13.7189 8.57141 16.4441 8.57141 19.2857V60.7143C8.57141 63.5559 9.70023 66.2811 11.7096 68.2904C13.7189 70.2998 16.4441 71.4286 19.2857 71.4286H37.1428C37.1412 69.9245 37.5353 68.4464 38.2857 67.1429H19.2857C17.5807 67.1429 15.9456 66.4656 14.74 65.26C13.5344 64.0544 12.8571 62.4193 12.8571 60.7143V27.1429H67.1428V37.4314L67.2743 37.4743C68.5286 37.7972 70.6828 39.56 71.2743 41.4286H71.4286V19.2857C71.4286 16.4441 70.2997 13.7189 68.2904 11.7096C66.2811 9.70026 63.5559 8.57144 60.7143 8.57144H19.2857ZM67.1428 22.8572H12.8571V19.2857C12.8571 17.5808 13.5344 15.9456 14.74 14.74C15.9456 13.5345 17.5807 12.8572 19.2857 12.8572H60.7143C62.4192 12.8572 64.0544 13.5345 65.26 14.74C66.4655 15.9456 67.1428 17.5808 67.1428 19.2857V22.8572ZM41.6743 67.3857C40.5571 68.5 40 69.9657 40 71.4286C40 72.8914 40.5571 74.3514 41.6743 75.4657C42.7459 76.537 44.199 77.1388 45.7143 77.1388C47.2295 77.1388 48.6827 76.537 49.7543 75.4657L60.18 65.0457C62.2648 65.7489 64.4952 65.9052 66.6578 65.4998C68.8203 65.0944 70.8426 64.1408 72.5312 62.7303C74.2198 61.3198 75.5182 59.4995 76.3021 57.4437C77.0861 55.3879 77.3293 53.1653 77.0086 50.9886C76.8543 49.94 75.5943 49.6286 74.8428 50.38L69.7571 55.4686C68.6857 56.5408 67.2321 57.1435 65.7163 57.144C64.2005 57.1446 62.7465 56.5429 61.6743 55.4714C60.602 54.4 59.9994 52.9464 59.9988 51.4306C59.9983 49.9148 60.5999 48.4608 61.6714 47.3886L66.7628 42.3C67.5114 41.5486 67.2028 40.2886 66.1543 40.1343C63.9776 39.8136 61.755 40.0568 59.6992 40.8407C57.6433 41.6247 55.8231 42.923 54.4126 44.6116C53.0021 46.3002 52.0485 48.3226 51.6431 50.4851C51.2377 52.6476 51.394 54.878 52.0971 56.9629L41.6743 67.3857Z" fill="#545454"/>
</svg>
