<svg width="80" height="80" viewBox="0 0 80 80" fill="none" xmlns="http://www.w3.org/2000/svg">
<path d="M43.944 30.16L42.28 36H48.396C48.7 36.0003 48.9975 36.0871 49.2539 36.2504C49.5103 36.4136 49.7149 36.6465 49.8438 36.9218C49.9726 37.1971 50.0203 37.5034 49.9814 37.8049C49.9425 38.1063 49.8185 38.3904 49.624 38.624L38.992 51.384C37.82 52.784 35.568 51.584 36.088 49.832L37.82 44H31.6C31.2953 44.0004 30.9969 43.9137 30.7397 43.7503C30.4826 43.5868 30.2775 43.3534 30.1485 43.0773C30.0195 42.8013 29.972 42.4942 30.0116 42.1921C30.0512 41.89 30.1762 41.6055 30.372 41.372L41.044 28.62C42.204 27.228 44.444 28.416 43.948 30.16M32 10C32 9.46957 31.7893 8.96086 31.4142 8.58579C31.0391 8.21071 30.5304 8 30 8C29.4696 8 28.9609 8.21071 28.5858 8.58579C28.2107 8.96086 28 9.46957 28 10V16H26C23.3478 16 20.8043 17.0536 18.9289 18.9289C17.0536 20.8043 16 23.3478 16 26V28H10C9.46957 28 8.96086 28.2107 8.58579 28.5858C8.21071 28.9609 8 29.4696 8 30C8 30.5304 8.21071 31.0391 8.58579 31.4142C8.96086 31.7893 9.46957 32 10 32H16V38H10C9.46957 38 8.96086 38.2107 8.58579 38.5858C8.21071 38.9609 8 39.4696 8 40C8 40.5304 8.21071 41.0391 8.58579 41.4142C8.96086 41.7893 9.46957 42 10 42H16V48H10C9.46957 48 8.96086 48.2107 8.58579 48.5858C8.21071 48.9609 8 49.4696 8 50C8 50.5304 8.21071 51.0391 8.58579 51.4142C8.96086 51.7893 9.46957 52 10 52H16V54C16 56.6522 17.0536 59.1957 18.9289 61.0711C20.8043 62.9464 23.3478 64 26 64H28V70C28 70.5304 28.2107 71.0391 28.5858 71.4142C28.9609 71.7893 29.4696 72 30 72C30.5304 72 31.0391 71.7893 31.4142 71.4142C31.7893 71.0391 32 70.5304 32 70V64H38V70C38 70.5304 38.2107 71.0391 38.5858 71.4142C38.9609 71.7893 39.4696 72 40 72C40.5304 72 41.0391 71.7893 41.4142 71.4142C41.7893 71.0391 42 70.5304 42 70V64H48V70C48 70.5304 48.2107 71.0391 48.5858 71.4142C48.9609 71.7893 49.4696 72 50 72C50.5304 72 51.0391 71.7893 51.4142 71.4142C51.7893 71.0391 52 70.5304 52 70V64H54C56.6522 64 59.1957 62.9464 61.0711 61.0711C62.9464 59.1957 64 56.6522 64 54V52H70C70.5304 52 71.0391 51.7893 71.4142 51.4142C71.7893 51.0391 72 50.5304 72 50C72 49.4696 71.7893 48.9609 71.4142 48.5858C71.0391 48.2107 70.5304 48 70 48H64V42H70C70.5304 42 71.0391 41.7893 71.4142 41.4142C71.7893 41.0391 72 40.5304 72 40C72 39.4696 71.7893 38.9609 71.4142 38.5858C71.0391 38.2107 70.5304 38 70 38H64V32H70C70.5304 32 71.0391 31.7893 71.4142 31.4142C71.7893 31.0391 72 30.5304 72 30C72 29.4696 71.7893 28.9609 71.4142 28.5858C71.0391 28.2107 70.5304 28 70 28H64V26C64 23.3478 62.9464 20.8043 61.0711 18.9289C59.1957 17.0536 56.6522 16 54 16H52V10C52 9.46957 51.7893 8.96086 51.4142 8.58579C51.0391 8.21071 50.5304 8 50 8C49.4696 8 48.9609 8.21071 48.5858 8.58579C48.2107 8.96086 48 9.46957 48 10V16H42V10C42 9.46957 41.7893 8.96086 41.4142 8.58579C41.0391 8.21071 40.5304 8 40 8C39.4696 8 38.9609 8.21071 38.5858 8.58579C38.2107 8.96086 38 9.46957 38 10V16H32V10ZM54 20C55.5913 20 57.1174 20.6321 58.2426 21.7574C59.3679 22.8826 60 24.4087 60 26V54C60 55.5913 59.3679 57.1174 58.2426 58.2426C57.1174 59.3679 55.5913 60 54 60H26C24.4087 60 22.8826 59.3679 21.7574 58.2426C20.6321 57.1174 20 55.5913 20 54V26C20 24.4087 20.6321 22.8826 21.7574 21.7574C22.8826 20.6321 24.4087 20 26 20H54Z" fill="#545454"/>
</svg>
