<svg width="80" height="80" viewBox="0 0 80 80" fill="none" xmlns="http://www.w3.org/2000/svg">
<path d="M39.9844 3.08887C37.7344 17.1248 35.8438 25.4686 30.6563 30.6561C25.4688 35.8436 17.125 37.7342 3.08911 39.9842C17.125 42.2342 25.4688 44.1248 30.6563 49.3279C35.8438 54.5154 37.7344 62.8592 39.9844 76.9061C42.2344 62.8592 44.1251 54.5154 49.3126 49.3123C54.5157 44.1248 62.8594 42.2342 76.9063 39.9842C62.8594 37.7342 54.5157 35.8436 49.3282 30.6561C44.1251 25.4686 42.2344 17.1248 39.9844 3.08887ZM66.0938 13.9061C58.9376 19.0779 53.4376 22.7967 48.5313 24.8748C49.3282 26.3436 50.25 27.5936 51.3125 28.6561C52.375 29.7186 53.6251 30.6404 55.1094 31.4529C57.2032 26.5467 60.9219 21.0467 66.0938 13.9061ZM13.9157 13.9154C19.0938 21.0623 22.7969 26.5467 24.875 31.4373C26.3438 30.6404 27.5938 29.7186 28.6563 28.6561C29.7188 27.5936 30.6407 26.3436 31.4375 24.8748C26.5469 22.7967 21.0625 19.0936 13.9157 13.9154ZM55.1094 48.5154C53.6251 49.3279 52.375 50.2498 51.3125 51.3123C50.25 52.3748 49.3282 53.6248 48.5157 55.1092C53.4376 57.1873 58.9376 60.9061 66.0938 66.0936C60.9063 58.9373 57.1876 53.4373 55.1094 48.5154ZM24.875 48.5311C22.7969 53.4373 19.0782 58.9373 13.9063 66.0936C21.0469 60.9217 26.5469 57.2029 31.4532 55.1092C30.6407 53.6248 29.7188 52.3748 28.6563 51.3123C27.5938 50.2498 26.3438 49.3279 24.875 48.5311Z" fill="#545454"/>
</svg>
