<svg width="80" height="80" viewBox="0 0 80 80" fill="none" xmlns="http://www.w3.org/2000/svg">
<path d="M39.9999 23.3333C30.7999 23.3333 23.3333 30.8 23.3333 40C23.3333 49.2 30.7999 56.6667 39.9999 56.6667C49.1999 56.6667 56.6666 49.2 56.6666 40C56.6666 30.8 49.1999 23.3333 39.9999 23.3333ZM6.66658 43.3333H13.3333C15.1666 43.3333 16.6666 41.8333 16.6666 40C16.6666 38.1667 15.1666 36.6667 13.3333 36.6667H6.66658C4.83325 36.6667 3.33325 38.1667 3.33325 40C3.33325 41.8333 4.83325 43.3333 6.66658 43.3333ZM66.6666 43.3333H73.3332C75.1666 43.3333 76.6666 41.8333 76.6666 40C76.6666 38.1667 75.1666 36.6667 73.3332 36.6667H66.6666C64.8332 36.6667 63.3332 38.1667 63.3332 40C63.3332 41.8333 64.8332 43.3333 66.6666 43.3333ZM36.6666 6.66668V13.3333C36.6666 15.1667 38.1666 16.6667 39.9999 16.6667C41.8332 16.6667 43.3332 15.1667 43.3332 13.3333V6.66668C43.3332 4.83334 41.8332 3.33334 39.9999 3.33334C38.1666 3.33334 36.6666 4.83334 36.6666 6.66668ZM36.6666 66.6667V73.3333C36.6666 75.1667 38.1666 76.6667 39.9999 76.6667C41.8332 76.6667 43.3332 75.1667 43.3332 73.3333V66.6667C43.3332 64.8333 41.8332 63.3333 39.9999 63.3333C38.1666 63.3333 36.6666 64.8333 36.6666 66.6667ZM19.9666 15.2667C19.6582 14.9577 19.2919 14.7125 18.8887 14.5452C18.4854 14.378 18.0531 14.2919 17.6166 14.2919C17.18 14.2919 16.7477 14.378 16.3445 14.5452C15.9413 14.7125 15.575 14.9577 15.2666 15.2667C14.9576 15.5751 14.7124 15.9413 14.5451 16.3446C14.3779 16.7478 14.2918 17.1801 14.2918 17.6167C14.2918 18.0532 14.3779 18.4855 14.5451 18.8888C14.7124 19.292 14.9576 19.6583 15.2666 19.9667L18.7999 23.5C20.0999 24.8 22.2333 24.8 23.4999 23.5C24.7666 22.2 24.7999 20.0667 23.4999 18.8L19.9666 15.2667ZM61.1999 56.5C60.8915 56.191 60.5252 55.9458 60.122 55.7786C59.7188 55.6113 59.2865 55.5252 58.8499 55.5252C58.4134 55.5252 57.9811 55.6113 57.5778 55.7786C57.1746 55.9458 56.8083 56.191 56.4999 56.5C56.1909 56.8084 55.9457 57.1747 55.7785 57.5779C55.6112 57.9812 55.5251 58.4134 55.5251 58.85C55.5251 59.2866 55.6112 59.7188 55.7785 60.1221C55.9457 60.5253 56.1909 60.8916 56.4999 61.2L60.0332 64.7333C61.3332 66.0333 63.4666 66.0333 64.7332 64.7333C65.0423 64.425 65.2874 64.0587 65.4547 63.6554C65.622 63.2522 65.7081 62.8199 65.7081 62.3833C65.7081 61.9468 65.622 61.5145 65.4547 61.1113C65.2874 60.708 65.0423 60.3417 64.7332 60.0333L61.1999 56.5ZM64.7332 19.9667C65.0423 19.6583 65.2874 19.292 65.4547 18.8888C65.622 18.4855 65.7081 18.0532 65.7081 17.6167C65.7081 17.1801 65.622 16.7478 65.4547 16.3446C65.2874 15.9413 65.0423 15.5751 64.7332 15.2667C64.4249 14.9577 64.0586 14.7125 63.6553 14.5452C63.2521 14.378 62.8198 14.2919 62.3832 14.2919C61.9467 14.2919 61.5144 14.378 61.1112 14.5452C60.7079 14.7125 60.3416 14.9577 60.0332 15.2667L56.4999 18.8C55.1999 20.1 55.1999 22.2333 56.4999 23.5C57.7999 24.7667 59.9333 24.8 61.1999 23.5L64.7332 19.9667ZM23.4999 61.2C23.8089 60.8916 24.0541 60.5253 24.2214 60.1221C24.3886 59.7188 24.4747 59.2866 24.4747 58.85C24.4747 58.4134 24.3886 57.9812 24.2214 57.5779C24.0541 57.1747 23.8089 56.8084 23.4999 56.5C23.1915 56.191 22.8252 55.9458 22.422 55.7786C22.0188 55.6113 21.5865 55.5252 21.1499 55.5252C20.7134 55.5252 20.2811 55.6113 19.8778 55.7786C19.4746 55.9458 19.1083 56.191 18.7999 56.5L15.2666 60.0333C13.9666 61.3333 13.9666 63.4667 15.2666 64.7333C16.5666 66 18.6999 66.0333 19.9666 64.7333L23.4999 61.2Z" fill="#545454"/>
</svg>
