<svg width="120" height="120" viewBox="0 0 120 120" fill="none" xmlns="http://www.w3.org/2000/svg">
<path d="M110 60C110 32.385 87.615 10 60 10C32.385 10 10 32.385 10 60C10 87.615 32.385 110 60 110" stroke="#545454" stroke-width="5" stroke-linecap="round" stroke-linejoin="round"/>
<path d="M65 10.25C65 10.25 80 30 80 60M55 109.75C55 109.75 40 90 40 60C40 30 55 10.25 55 10.25M13.15 77.5H60M13.15 42.5H106.85" stroke="#545454" stroke-width="5" stroke-linecap="round" stroke-linejoin="round"/>
<path d="M109.395 89.585C111.865 91.105 111.71 94.8 109.17 95.09L96.335 96.545L90.58 108.105C89.44 110.4 85.915 109.275 85.33 106.435L79.055 75.855C78.56 73.455 80.72 71.945 82.805 73.23L109.395 89.585Z" stroke="#545454" stroke-width="5"/>
</svg>
