<svg width="80" height="80" viewBox="0 0 80 80" fill="none" xmlns="http://www.w3.org/2000/svg">
<path d="M40 70C31.6111 70 24.5144 68.7089 18.71 66.1267C12.9056 63.5444 10.0022 60.3911 10 56.6667V23.3333C10 19.6667 12.9311 16.5278 18.7933 13.9167C24.6556 11.3056 31.7244 10 40 10C48.2778 10 55.3478 11.3056 61.21 13.9167C67.0722 16.5278 70.0022 19.6667 70 23.3333V56.6667C70 60.3889 67.0967 63.5422 61.29 66.1267C55.4833 68.7111 48.3867 70.0022 40 70ZM40 30.0833C44.9444 30.0833 49.9167 29.3744 54.9167 27.9567C59.9167 26.5389 62.7222 25.0256 63.3333 23.4167C62.7222 21.8056 59.9311 20.2778 54.96 18.8333C49.9889 17.3889 45.0022 16.6667 40 16.6667C34.9444 16.6667 29.9867 17.3756 25.1267 18.7933C20.2667 20.2111 17.4467 21.7522 16.6667 23.4167C17.4444 25.0833 20.2644 26.6111 25.1267 28C29.9889 29.3889 34.9467 30.0833 40 30.0833ZM40 46.6667C42.3333 46.6667 44.5833 46.5556 46.75 46.3333C48.9167 46.1111 50.9867 45.7911 52.96 45.3733C54.9311 44.9578 56.7922 44.4444 58.5433 43.8333C60.2944 43.2222 61.8911 42.5278 63.3333 41.75V31.75C61.8889 32.5278 60.2922 33.2222 58.5433 33.8333C56.7944 34.4444 54.9333 34.9589 52.96 35.3767C50.9867 35.7922 48.9167 36.1111 46.75 36.3333C44.5833 36.5556 42.3333 36.6667 40 36.6667C37.6667 36.6667 35.3889 36.5556 33.1667 36.3333C30.9444 36.1111 28.8467 35.7911 26.8733 35.3733C24.9022 34.9578 23.0556 34.4444 21.3333 33.8333C19.6111 33.2222 18.0556 32.5278 16.6667 31.75V41.75C18.0556 42.5278 19.6111 43.2222 21.3333 43.8333C23.0556 44.4444 24.9033 44.9589 26.8767 45.3767C28.8478 45.7922 30.9444 46.1111 33.1667 46.3333C35.3889 46.5556 37.6667 46.6667 40 46.6667ZM40 63.3333C42.5556 63.3333 45.1533 63.1389 47.7933 62.75C50.4333 62.3611 52.8633 61.8478 55.0833 61.21C57.3056 60.57 59.1667 59.8478 60.6667 59.0433C62.1667 58.2389 63.0556 57.4189 63.3333 56.5833V48.4167C61.8889 49.1944 60.2922 49.8889 58.5433 50.5C56.7944 51.1111 54.9333 51.6256 52.96 52.0433C50.9867 52.4589 48.9167 52.7778 46.75 53C44.5833 53.2222 42.3333 53.3333 40 53.3333C37.6667 53.3333 35.3889 53.2222 33.1667 53C30.9444 52.7778 28.8467 52.4578 26.8733 52.04C24.9022 51.6244 23.0556 51.1111 21.3333 50.5C19.6111 49.8889 18.0556 49.1944 16.6667 48.4167V56.6667C16.9444 57.5 17.82 58.3056 19.2933 59.0833C20.7667 59.8611 22.6133 60.57 24.8333 61.21C27.0556 61.8478 29.5 62.3611 32.1667 62.75C34.8333 63.1389 37.4444 63.3333 40 63.3333Z" fill="#545454"/>
</svg>
