<svg width="80" height="80" viewBox="0 0 80 80" fill="none" xmlns="http://www.w3.org/2000/svg">
<path d="M39.3 38.3334H32.4V27.3H40.6334C44.8334 27.3 47.1667 29.1667 47.1667 32.6C47.1667 36.3334 44.4 38.3334 39.3 38.3334ZM40.5334 42.1H32.4V54.2334H40.9334C46.1334 54.2334 48.8667 52.1334 48.8667 48.1334C48.8667 44.1334 46.0334 42.1 40.5334 42.1ZM73.3334 17.7V62.3C73.3334 68.3334 68.3334 73.3334 62.3 73.3334H17.7C11.6667 73.3334 6.66669 68.3334 6.66669 62.3V17.7C6.66669 11.6667 11.6667 6.66669 17.7 6.66669H62.3C68.3334 6.66669 73.3334 11.6667 73.3334 17.7ZM53.3334 48.3334C53.3334 43.7334 50.2667 40.4334 45.5667 39.8334V39.6334C48.9 39.0334 51.5334 35.7 51.5334 32.1C51.5334 26.9334 47.5334 23.5 41.6667 23.5H28.1V58.0334H41.5667C48.9334 58.0334 53.3334 54.4 53.3334 48.3334Z" fill="#545454"/>
</svg>
