<svg width="80" height="80" viewBox="0 0 80 80" fill="none" xmlns="http://www.w3.org/2000/svg">
<path d="M40 33.7C43.4334 33.7 46.2334 36.5 46.2334 40C46.2334 43.3333 43.4334 46.1667 40 46.1667C36.5667 46.1667 33.7667 43.3333 33.7667 40C33.7667 36.5 36.5667 33.7 40 33.7ZM24.5667 66.6667C26.6667 67.9333 31.2667 66 36.5667 61C34.8334 59.0333 33.1334 56.9 31.5334 54.6667C28.8472 54.4096 26.1767 54.009 23.5334 53.4667C21.8334 60.6 22.4667 65.5 24.5667 66.6667ZM26.9334 47.5333L25.9667 45.8333C25.6 46.8 25.2334 47.7667 25 48.7C25.9 48.9 26.9 49.0667 27.9334 49.2333L26.9334 47.5333ZM48.7334 45L51.4334 40L48.7334 35C47.7334 33.2333 46.6667 31.6667 45.7 30.1C43.9 30 42 30 40 30C38 30 36.1 30 34.3 30.1C33.3334 31.6667 32.2667 33.2333 31.2667 35L28.5667 40L31.2667 45C32.2667 46.7667 33.3334 48.3333 34.3 49.9C36.1 50 38 50 40 50C42 50 43.9 50 45.7 49.9C46.6667 48.3333 47.7334 46.7667 48.7334 45ZM40 22.6C39.3667 23.3333 38.7 24.1 38.0334 25H41.9667C41.3 24.1 40.6334 23.3333 40 22.6ZM40 57.4C40.6334 56.6667 41.3 55.9 41.9667 55H38.0334C38.7 55.9 39.3667 56.6667 40 57.4ZM55.4 13.3333C53.3334 12.0667 48.7334 14 43.4334 19C45.1667 20.9667 46.8667 23.1 48.4667 25.3333C51.2 25.6 53.9 26 56.4667 26.5333C58.1667 19.4 57.5334 14.5 55.4 13.3333ZM53.0667 32.4667L54.0333 34.1667C54.4 33.2 54.7667 32.2333 55 31.3C54.1 31.1 53.1 30.9333 52.0667 30.7667L53.0667 32.4667ZM57.9 8.96668C62.8 11.7667 63.3334 19.1333 61.2667 27.7333C69.7334 30.2333 75.8334 34.3667 75.8334 40C75.8334 45.6333 69.7334 49.7667 61.2667 52.2667C63.3334 60.8667 62.8 68.2333 57.9 71.0333C53.0334 73.8333 46.4 70.6333 40 64.5333C33.6 70.6333 26.9667 73.8333 22.0667 71.0333C17.2 68.2333 16.6667 60.8667 18.7334 52.2667C10.2667 49.7667 4.16669 45.6333 4.16669 40C4.16669 34.3667 10.2667 30.2333 18.7334 27.7333C16.6667 19.1333 17.2 11.7667 22.0667 8.96668C26.9667 6.16668 33.6 9.36668 40 15.4667C46.4 9.36668 53.0334 6.16668 57.9 8.96668ZM56.9334 40C58.0667 42.5 59.0667 45 59.9 47.5333C66.9 45.4333 70.8334 42.4333 70.8334 40C70.8334 37.5667 66.9 34.5667 59.9 32.4667C59.0667 35 58.0667 37.5 56.9334 40ZM23.0667 40C21.9334 37.5 20.9334 35 20.1 32.4667C13.1 34.5667 9.16669 37.5667 9.16669 40C9.16669 42.4333 13.1 45.4333 20.1 47.5333C20.9334 45 21.9334 42.5 23.0667 40ZM53.0667 47.5333L52.0667 49.2333C53.1 49.0667 54.1 48.9 55 48.7C54.7667 47.7667 54.4 46.8 54.0333 45.8333L53.0667 47.5333ZM43.4334 61C48.7334 66 53.3334 67.9333 55.4 66.6667C57.5334 65.5 58.1667 60.6 56.4667 53.4667C53.9 54 51.2 54.4 48.4667 54.6667C46.8667 56.9 45.1667 59.0333 43.4334 61ZM26.9334 32.4667L27.9334 30.7667C26.9 30.9333 25.9 31.1 25 31.3C25.2334 32.2333 25.6 33.2 25.9667 34.1667L26.9334 32.4667ZM36.5667 19C31.2667 14 26.6667 12.0667 24.5667 13.3333C22.4667 14.5 21.8334 19.4 23.5334 26.5333C26.1767 25.991 28.8472 25.5904 31.5334 25.3333C33.1334 23.1 34.8334 20.9667 36.5667 19Z" fill="#545454"/>
</svg>
