<svg width="80" height="80" viewBox="0 0 80 80" fill="none" xmlns="http://www.w3.org/2000/svg">
<path d="M70 40C70 40.663 69.7366 41.2989 69.2678 41.7678C68.7989 42.2366 68.163 42.5 67.5 42.5H42.5V67.5C42.5 68.163 42.2366 68.7989 41.7678 69.2678C41.2989 69.7366 40.663 70 40 70C39.337 70 38.7011 69.7366 38.2322 69.2678C37.7634 68.7989 37.5 68.163 37.5 67.5V42.5H12.5C11.837 42.5 11.2011 42.2366 10.7322 41.7678C10.2634 41.2989 10 40.663 10 40C10 39.337 10.2634 38.7011 10.7322 38.2322C11.2011 37.7634 11.837 37.5 12.5 37.5H37.5V12.5C37.5 11.837 37.7634 11.2011 38.2322 10.7322C38.7011 10.2634 39.337 10 40 10C40.663 10 41.2989 10.2634 41.7678 10.7322C42.2366 11.2011 42.5 11.837 42.5 12.5V37.5H67.5C68.163 37.5 68.7989 37.7634 69.2678 38.2322C69.7366 38.7011 70 39.337 70 40Z" fill="#545454"/>
</svg>
