<svg width="80" height="80" viewBox="0 0 80 80" fill="none" xmlns="http://www.w3.org/2000/svg">
<path d="M65.1531 59.8469C65.8576 60.5514 66.2534 61.5068 66.2534 62.5031C66.2534 63.4994 65.8576 64.4549 65.1531 65.1594C64.4486 65.8639 63.4931 66.2596 62.4969 66.2596C61.5006 66.2596 60.5451 65.8639 59.8406 65.1594L40 45.3125L20.1531 65.1531C19.4486 65.8576 18.4931 66.2534 17.4969 66.2534C16.5006 66.2534 15.5451 65.8576 14.8406 65.1531C14.1361 64.4486 13.7404 63.4932 13.7404 62.4969C13.7404 61.5006 14.1361 60.5451 14.8406 59.8406L34.6875 40L14.8469 20.1531C14.1424 19.4486 13.7466 18.4932 13.7466 17.4969C13.7466 16.5006 14.1424 15.5451 14.8469 14.8406C15.5513 14.1361 16.5068 13.7404 17.5031 13.7404C18.4994 13.7404 19.4549 14.1361 20.1594 14.8406L40 34.6875L59.8469 14.8375C60.5513 14.133 61.5068 13.7372 62.5031 13.7372C63.4994 13.7372 64.4549 14.133 65.1594 14.8375C65.8638 15.542 66.2596 16.4975 66.2596 17.4937C66.2596 18.49 65.8638 19.4455 65.1594 20.15L45.3125 40L65.1531 59.8469Z" fill="#545454"/>
</svg>
