<svg width="80" height="80" viewBox="0 0 80 80" fill="none" xmlns="http://www.w3.org/2000/svg">
<path d="M20 10C17.3478 10 14.8043 11.0536 12.9289 12.9289C11.0536 14.8043 10 17.3478 10 20V60C10 62.6522 11.0536 65.1957 12.9289 67.0711C14.8043 68.9464 17.3478 70 20 70H60C62.6522 70 65.1957 68.9464 67.0711 67.0711C68.9464 65.1957 70 62.6522 70 60V20C70 17.3478 68.9464 14.8043 67.0711 12.9289C65.1957 11.0536 62.6522 10 60 10H20ZM44.4467 53.5167C46.8467 55.45 49.24 56.4 51.6333 56.3767C53.1 56.3767 54.2267 56.11 55.0067 55.57C55.3709 55.3336 55.6672 55.0064 55.8665 54.6206C56.0658 54.2349 56.1612 53.8038 56.1433 53.37C56.1482 52.8968 56.0492 52.4283 55.8534 51.9976C55.6576 51.5668 55.3697 51.1841 55.01 50.8767C54.2267 50.1933 52.7467 49.51 50.57 48.8233C47.9567 48.0667 45.9367 47.09 44.52 45.89C43.1267 44.69 42.42 43.0167 42.3933 40.8667C42.3933 38.8367 43.2733 37.14 45.0333 35.77C46.7467 34.4033 48.9333 33.7167 51.6 33.7167C55.3133 33.7167 58.2967 34.62 60.5433 36.43L57.9767 40.4267C57.0526 39.7079 55.9923 39.184 54.86 38.8867C53.8424 38.5463 52.7794 38.3609 51.7067 38.3367C50.44 38.3367 49.4233 38.57 48.6633 39.0333C47.9067 39.5 47.53 40.11 47.53 40.8667C47.53 41.7 47.9933 42.4067 48.92 42.9933C49.8533 43.5567 51.44 44.18 53.6867 44.8633C56.4 45.67 58.3333 46.7467 59.48 48.09C60.63 49.4333 61.2033 51.1467 61.2033 53.2233C61.2033 55.35 60.3867 57.1833 58.7467 58.7233C57.1333 60.24 54.7867 61.0333 51.7067 61.1067C47.6733 61.1067 44.3 59.8967 41.5867 57.4767L44.4467 53.5167ZM26.0133 55.6433C26.7967 56.1333 27.7367 56.3767 28.8367 56.3767C29.9867 56.3767 30.9367 56.0467 31.6967 55.3867C32.4533 54.7033 32.8333 53.5167 32.8333 51.83V34.1567H37.7833V52.7833C37.71 55.6667 36.88 57.7467 35.29 59.0167C34.4224 59.7544 33.4111 60.3038 32.32 60.63C31.3094 60.9379 30.2597 61.0984 29.2033 61.1067C27.37 61.1067 25.7433 60.79 24.3267 60.1533C22.81 59.47 21.54 58.26 20.5133 56.5233L23.96 53.7C24.5933 54.5567 25.28 55.2033 26.0133 55.6433Z" fill="#545454"/>
</svg>
