<svg width="80" height="80" viewBox="0 0 80 80" fill="none" xmlns="http://www.w3.org/2000/svg">
<g clip-path="url(#clip0_199_48)">
<path d="M78.9767 35.6867L63.21 8.40336C61.8433 6.03669 58.4867 4.09003 55.7433 4.09003H24.2433C21.51 4.09003 18.14 6.03669 16.7767 8.40336L1.02 35.6867C-0.346671 38.0534 -0.346671 41.93 1.02 44.3L16.77 71.5967C18.1367 73.9634 21.4933 75.91 24.2367 75.91H55.7533C58.4867 75.91 61.84 73.9634 63.22 71.5967L78.9733 44.2967C80.34 41.93 80.34 38.0534 78.9733 35.6867H78.9767ZM36.5867 19.1834C36.5867 17.3934 38.0467 15.9334 39.8333 15.9334C41.62 15.9334 43.0833 17.3934 43.0833 19.1834V38.5867C43.0304 39.4118 42.6653 40.1858 42.0623 40.7514C41.4592 41.3171 40.6635 41.6319 39.8367 41.6319C39.0099 41.6319 38.2141 41.3171 37.611 40.7514C37.008 40.1858 36.6429 39.4118 36.59 38.5867L36.5867 19.1834ZM39.8333 60.6167C33.9937 60.6087 28.3955 58.285 24.2669 54.1551C20.1382 50.0252 17.8162 44.4264 17.81 38.5867C17.8179 35.1519 18.6253 31.7661 20.1683 28.6975C21.7113 25.6288 23.9476 22.9614 26.7 20.9067C27.0048 20.6796 27.3515 20.515 27.7201 20.4222C28.0887 20.3294 28.472 20.3104 28.848 20.3661C29.2239 20.4219 29.5852 20.5513 29.9111 20.7471C30.2369 20.9428 30.5209 21.2009 30.7467 21.5067C30.9736 21.811 31.1382 22.1571 31.2312 22.5251C31.3242 22.8931 31.3437 23.2759 31.2886 23.6514C31.2335 24.027 31.1049 24.388 30.9101 24.7138C30.7153 25.0396 30.4581 25.3237 30.1533 25.55C26.814 28.1625 24.6278 31.9765 24.061 36.1782C23.4941 40.38 24.5916 44.6369 27.1193 48.0409C29.6469 51.4449 33.4046 53.7264 37.5908 54.3988C41.777 55.0712 46.0601 54.0812 49.5267 51.64C51.5625 50.1269 53.2159 48.1583 54.3544 45.8916C55.4929 43.625 56.085 41.1232 56.0833 38.5867C56.0766 36.0407 55.4745 33.5316 54.325 31.2599C53.1756 28.9881 51.5106 27.0168 49.4633 25.5034C48.8472 25.0466 48.4371 24.3644 48.3228 23.606C48.2085 22.8476 48.3992 22.0748 48.8533 21.4567C49.3101 20.8406 49.9923 20.4305 50.7507 20.3161C51.5091 20.2018 52.2819 20.3926 52.9 20.8467C55.6741 22.8992 57.9291 25.5728 59.4845 28.6533C61.0398 31.7339 61.8522 35.1358 61.8567 38.5867C61.8522 44.4272 59.5302 50.0272 55.4003 54.157C51.2705 58.2869 45.6705 60.6089 39.83 60.6134" fill="#545454"/>
</g>
<defs>
<clipPath id="clip0_199_48">
<rect width="80" height="80" fill="white"/>
</clipPath>
</defs>
</svg>
