<svg width="80" height="80" viewBox="0 0 80 80" fill="none" xmlns="http://www.w3.org/2000/svg">
<path opacity="0.5" d="M40 6.66666H28.89C25.943 6.66666 23.1167 7.83735 21.0329 9.92119C18.949 12.005 17.7783 14.8313 17.7783 17.7783C17.7783 20.7253 18.949 23.5516 21.0329 25.6355C23.1167 27.7193 25.943 28.89 28.89 28.89H40V6.66666Z" stroke="#545454" stroke-width="5"/>
<path d="M40 28.89H28.89C25.9435 28.89 23.1176 30.0605 21.0341 32.144C18.9505 34.2276 17.78 37.0534 17.78 40C17.78 42.9465 18.9505 45.7724 21.0341 47.8559C23.1176 49.9395 25.9435 51.11 28.89 51.11H40V28.89Z" stroke="#545454" stroke-width="5"/>
<path opacity="0.5" d="M62.2234 40C62.2234 42.947 61.0527 45.7733 58.9688 47.8571C56.885 49.941 54.0587 51.1117 51.1117 51.1117C48.1647 51.1117 45.3384 49.941 43.2546 47.8571C41.1707 45.7733 40 42.947 40 40C40 37.053 41.1707 34.2267 43.2546 32.1429C45.3384 30.059 48.1647 28.8883 51.1117 28.8883C54.0587 28.8883 56.885 30.059 58.9688 32.1429C61.0527 34.2267 62.2234 37.053 62.2234 40ZM28.89 51.1133H40V62.2233C39.9994 64.4205 39.3472 66.5682 38.126 68.3948C36.9049 70.2214 35.1695 71.6449 33.1393 72.4853C31.1092 73.3256 28.8754 73.5452 26.7205 73.1161C24.5656 72.6871 22.5863 71.6287 21.0329 70.0748C19.4795 68.5209 18.4217 66.5413 17.9933 64.3862C17.5649 62.2312 17.7851 59.9975 18.6261 57.9676C19.467 55.9377 20.891 54.2028 22.718 52.9821C24.545 51.7615 26.6928 51.1133 28.89 51.1133Z" stroke="#545454" stroke-width="5"/>
<path d="M40 6.66666H51.11C54.057 6.66666 56.8833 7.83735 58.9671 9.92119C61.051 12.005 62.2217 14.8313 62.2217 17.7783C62.2217 20.7253 61.051 23.5516 58.9671 25.6355C56.8833 27.7193 54.057 28.89 51.11 28.89H40V6.66666Z" stroke="#545454" stroke-width="5"/>
</svg>
