<svg width="80" height="80" viewBox="0 0 80 80" fill="none" xmlns="http://www.w3.org/2000/svg">
<path d="M23.3333 32.2235C23.3333 29.8657 24.2699 27.6045 25.9371 25.9373C27.6043 24.2701 29.8655 23.3335 32.2233 23.3335H61.1099C62.2774 23.3335 63.4334 23.5634 64.512 24.0102C65.5906 24.457 66.5706 25.1118 67.3961 25.9373C68.2216 26.7628 68.8764 27.7429 69.3232 28.8214C69.77 29.9 69.9999 31.056 69.9999 32.2235V61.1102C69.9999 62.2776 69.77 63.4336 69.3232 64.5122C68.8764 65.5908 68.2216 66.5708 67.3961 67.3963C66.5706 68.2219 65.5906 68.8767 64.512 69.3235C63.4334 69.7702 62.2774 70.0002 61.1099 70.0002H32.2233C31.0558 70.0002 29.8998 69.7702 28.8212 69.3235C27.7426 68.8767 26.7626 68.2219 25.9371 67.3963C25.1116 66.5708 24.4567 65.5908 24.01 64.5122C23.5632 63.4336 23.3333 62.2776 23.3333 61.1102V32.2235Z" stroke="#545454" stroke-width="6.66667" stroke-linecap="round" stroke-linejoin="round"/>
<path d="M13.3733 55.79C12.3511 55.2073 11.5009 54.365 10.9086 53.3483C10.3163 52.3316 10.0028 51.1766 10 50V16.6667C10 13 13 10 16.6667 10H50C52.5 10 53.86 11.2833 55 13.3333" stroke="#545454" stroke-width="6.66667" stroke-linecap="round" stroke-linejoin="round"/>
</svg>
