<svg width="80" height="80" viewBox="0 0 80 80" fill="none" xmlns="http://www.w3.org/2000/svg">
<g clip-path="url(#clip0_199_6)">
<path d="M39.9999 6.64001C33.9656 6.64112 28.0448 8.28025 22.869 11.3826C17.6933 14.4849 13.4567 18.934 10.6113 24.2553C7.76585 29.5766 6.41829 35.5705 6.71234 41.5977C7.00639 47.6248 8.93102 53.4591 12.2809 58.4781C15.6308 63.4972 20.2804 67.5128 25.7335 70.0965C31.1867 72.6803 37.239 73.7353 43.2448 73.149C49.2505 72.5627 54.9845 70.3571 59.835 66.7675C64.6855 63.1778 68.4706 58.3389 70.7866 52.7667C71.9233 50.0333 69.1999 47.2867 66.4599 48.4C61.7639 50.3023 56.5496 50.4986 51.7238 48.9548C46.898 47.411 42.7658 44.2248 40.0458 39.9501C37.3257 35.6754 36.1897 30.5826 36.8354 25.5572C37.4811 20.5318 39.8676 15.8916 43.5799 12.4433L43.8366 12.1767C45.6733 10.0767 44.2133 6.66668 41.3099 6.66668H40.4233L40.1966 6.64668L39.9999 6.64001Z" fill="#545454"/>
</g>
<defs>
<clipPath id="clip0_199_6">
<rect width="80" height="80" fill="white"/>
</clipPath>
</defs>
</svg>
