<svg width="80" height="80" viewBox="0 0 80 80" fill="none" xmlns="http://www.w3.org/2000/svg">
<path d="M13.3334 43.3334H30M40 53.3334V26.6667H50C51.7681 26.6667 53.4638 27.3691 54.7141 28.6193C55.9643 29.8696 56.6667 31.5652 56.6667 33.3334V36.6667C56.6667 38.4348 55.9643 40.1305 54.7141 41.3807C53.4638 42.631 51.7681 43.3334 50 43.3334H40M66.6667 26.6667V53.3334M30 53.3334V35C30 32.7899 29.1221 30.6703 27.5593 29.1075C25.9965 27.5447 23.8768 26.6667 21.6667 26.6667C19.4566 26.6667 17.337 27.5447 15.7742 29.1075C14.2113 30.6703 13.3334 32.7899 13.3334 35V53.3334" stroke="#545454" stroke-width="6.66667" stroke-linecap="round" stroke-linejoin="round"/>
</svg>
