<svg width="80" height="80" viewBox="0 0 80 80" fill="none" xmlns="http://www.w3.org/2000/svg">
<g clip-path="url(#clip0_199_42)">
<path d="M40 13.3333C34.528 13.3333 29.824 14.8106 26.1334 17.9733C22.464 21.12 20.0694 25.6906 18.736 31.392C18.5945 31.9958 18.6679 32.6301 18.9436 33.1857C19.2192 33.7412 19.6799 34.1834 20.2463 34.436C20.8127 34.6885 21.4495 34.7358 22.047 34.5696C22.6445 34.4034 23.1654 34.0341 23.52 33.5253C25.2054 31.1146 26.8907 29.6693 28.512 28.9226C30.08 28.2026 31.7707 28.0586 33.712 28.576C35.664 29.0986 37.1787 30.6346 39.552 33.216L39.632 33.3013C41.424 35.248 43.6054 37.6213 46.592 39.4666C49.696 41.3813 53.552 42.6666 58.6667 42.6666C64.1387 42.6666 68.8427 41.1893 72.5334 38.0266C76.2027 34.88 78.6027 30.3093 79.9307 24.608C80.0722 24.0041 79.9989 23.3699 79.7232 22.8143C79.4476 22.2587 78.9869 21.8166 78.4205 21.564C77.854 21.3114 77.2173 21.2642 76.6198 21.4304C76.0222 21.5966 75.5014 21.9658 75.1467 22.4746C73.4614 24.8853 71.776 26.3306 70.1547 27.0773C68.5867 27.7973 66.896 27.9413 64.9547 27.424C63.0027 26.9013 61.488 25.3653 59.1147 22.784L59.0347 22.6986C57.2427 20.752 55.0614 18.3786 52.0747 16.5333C48.9707 14.6186 45.1147 13.3333 40 13.3333ZM21.3334 37.3333C15.8614 37.3333 11.1574 38.8106 7.46671 41.9733C3.79738 45.12 1.40271 49.6906 0.0693786 55.392C-0.0721405 55.9958 0.00123652 56.6301 0.276883 57.1857C0.552529 57.7412 1.0132 58.1834 1.57964 58.436C2.14607 58.6885 2.78282 58.7358 3.38034 58.5696C3.97785 58.4034 4.49874 58.0341 4.85338 57.5253C6.53871 55.1147 8.22404 53.6693 9.84538 52.9226C11.4134 52.2026 13.104 52.0586 15.0454 52.576C16.9974 53.0986 18.512 54.6346 20.8854 57.216L20.9654 57.3013C22.7574 59.248 24.9387 61.6213 27.9254 63.4666C31.0294 65.3813 34.8854 66.6666 40 66.6666C45.472 66.6666 50.176 65.1893 53.8667 62.0266C57.536 58.88 59.9361 54.3093 61.264 48.608C61.4056 48.0041 61.3322 47.3699 61.0565 46.8143C60.7809 46.2587 60.3202 45.8166 59.7538 45.564C59.1874 45.3114 58.5506 45.2642 57.9531 45.4304C57.3556 45.5966 56.8347 45.9658 56.48 46.4746C54.7947 48.8853 53.1094 50.3306 51.488 51.0773C49.92 51.7973 48.2294 51.9413 46.288 51.424C44.336 50.9013 42.8214 49.3653 40.448 46.784L40.368 46.6986C38.5814 44.752 36.3947 42.3786 33.408 40.5333C30.304 38.6133 26.448 37.3333 21.3334 37.3333Z" fill="#545454"/>
</g>
<defs>
<clipPath id="clip0_199_42">
<rect width="80" height="80" fill="white"/>
</clipPath>
</defs>
</svg>
